<svg width="16" height="16" viewBox="0 0 16 16" fill="none" xmlns="http://www.w3.org/2000/svg">
<path fill-rule="evenodd" clip-rule="evenodd" d="M11.2654 2.38033H11.332C13.173 2.38033 14.6654 3.87271 14.6654 5.71366V11.7137C14.6654 13.5546 13.173 15.047 11.332 15.047H4.66536C3.78131 15.047 2.93346 14.6958 2.30834 14.0707C1.68322 13.4456 1.33203 12.5977 1.33203 11.7137V5.71366C1.33203 3.87271 2.82442 2.38033 4.66536 2.38033H4.73203V1.16699C4.73203 0.89085 4.95589 0.666992 5.23203 0.666992C5.50817 0.666992 5.73203 0.89085 5.73203 1.16699V2.38033H10.2654V1.16699C10.2654 0.89085 10.4892 0.666992 10.7654 0.666992C11.0415 0.666992 11.2654 0.89085 11.2654 1.16699V2.38033ZM4.9987 6.44033H10.9987C11.2748 6.44033 11.4987 6.21647 11.4987 5.94033C11.4987 5.66418 11.2748 5.44033 10.9987 5.44033H4.9987C4.72256 5.44033 4.4987 5.66418 4.4987 5.94033C4.4987 6.21647 4.72256 6.44033 4.9987 6.44033Z" fill="#64748B"/>
</svg>
