<svg width="24" height="24" viewBox="0 0 24 24" fill="none" xmlns="http://www.w3.org/2000/svg">
<path d="M9.55172 2.48332C11.0758 1.17223 13.3294 1.17222 14.8535 2.48332C15.5118 3.04969 16.3342 3.39093 17.2002 3.45598C19.2051 3.60645 20.7987 5.20004 20.9492 7.205C21.0142 8.07097 21.3555 8.89339 21.9218 9.55168C23.233 11.0757 23.2329 13.3294 21.9218 14.8534C21.3555 15.5117 21.0142 16.3342 20.9492 17.2001C20.7987 19.2051 19.2051 20.7996 17.2002 20.9501C16.3342 21.0152 15.5117 21.3554 14.8535 21.9218C13.3294 23.233 11.0758 23.233 9.55172 21.9218C8.89347 21.3555 8.07095 21.0152 7.20504 20.9501C5.20008 20.7996 3.60649 19.2051 3.45602 17.2001C3.39095 16.3342 3.04971 15.5117 2.48336 14.8534C1.17224 13.3294 1.17219 11.0757 2.48336 9.55168C3.04974 8.89339 3.39098 8.07097 3.45602 7.205C3.60649 5.20004 5.20008 3.60645 7.20504 3.45598C8.07097 3.39092 8.89346 3.04968 9.55172 2.48332ZM17.455 8.36613C16.9932 7.95072 16.2817 7.98837 15.8662 8.45012L11.1904 13.6454L8.42281 11.3388C7.9456 10.9411 7.23663 11.0053 6.83883 11.4823C6.44107 11.9597 6.50507 12.6695 6.98238 13.0673L10.3603 15.8818C10.9487 16.3721 11.8196 16.3094 12.332 15.7402L17.539 9.955C17.9544 9.49317 17.9168 8.7817 17.455 8.36613Z" fill="url(#paint0_linear_785_24339)"/>
<defs>
<linearGradient id="paint0_linear_785_24339" x1="1.5" y1="12.2026" x2="22.9052" y2="12.2026" gradientUnits="userSpaceOnUse">
<stop stop-color="#10B981"/>
<stop offset="1" stop-color="#A3E635"/>
</linearGradient>
</defs>
</svg>
