<svg width="16" height="16" viewBox="0 0 16 16" fill="none" xmlns="http://www.w3.org/2000/svg">
<path d="M10.5986 2.59961C12.4703 2.59961 13.9784 4.03751 14.123 5.90234L14.1318 6.08398V6.2002C14.1318 7.24212 13.7282 8.14487 13.0596 8.75781L12.8652 8.93652V8.98047C12.7643 9.06604 12.6339 9.17783 12.4824 9.30957C12.1453 9.60273 11.6937 10.0004 11.2021 10.4336C10.2203 11.2989 9.07831 12.3083 8.34766 12.9395C8.17124 13.0862 7.89722 13.0865 7.71973 12.9414C6.98752 12.309 5.82433 11.2963 4.83496 10.4316C4.33937 9.99852 3.88751 9.6028 3.55566 9.31152C3.40553 9.17974 3.28607 9.07349 3.19824 8.99609V8.95117L3.02344 8.77539C2.32968 8.08163 1.93169 7.16559 1.93164 6.2002V6.08496C1.98842 4.21111 3.58811 2.66699 5.46582 2.66699C5.74399 2.6671 6.11269 2.76392 6.48047 2.96191C6.83238 3.1514 7.14041 3.41108 7.34277 3.7002C7.63957 4.30642 8.51529 4.29878 8.79785 3.67773C8.96312 3.37509 9.26272 3.10098 9.62402 2.89941C9.99161 2.69441 10.3583 2.59963 10.5986 2.59961Z" stroke="#64748B" stroke-width="1.2"/>
</svg>
