<svg width="16" height="16" viewBox="0 0 16 16" fill="none" xmlns="http://www.w3.org/2000/svg">
<g clip-path="url(#clip0_137_97526)">
<path d="M6.57175 2.4487C7.46082 1.68377 8.77643 1.68377 9.6655 2.4487C10.0494 2.77902 10.5286 2.9781 11.0337 3.01609C12.2032 3.10386 13.1334 4.03403 13.2212 5.20359C13.2591 5.70862 13.4582 6.18782 13.7885 6.57175C14.5535 7.46082 14.5535 8.77643 13.7885 9.6655C13.4582 10.0494 13.2592 10.5286 13.2212 11.0337C13.1334 12.2032 12.2032 13.1334 11.0337 13.2212C10.5286 13.2592 10.0494 13.4582 9.6655 13.7885C8.77643 14.5535 7.46082 14.5535 6.57175 13.7885C6.18782 13.4582 5.70862 13.2591 5.20359 13.2212C4.03403 13.1334 3.10386 12.2032 3.01609 11.0337C2.9781 10.5286 2.77902 10.0494 2.4487 9.6655C1.68377 8.77643 1.68377 7.46082 2.4487 6.57175C2.77902 6.18782 2.9781 5.70862 3.01609 5.20359C3.10386 4.03403 4.03403 3.10386 5.20359 3.01609C5.70862 2.9781 6.18782 2.77902 6.57175 2.4487ZM11.1831 5.88132C10.9138 5.63901 10.4988 5.66023 10.2563 5.92917L7.52878 8.96042L5.91355 7.61472C5.63512 7.38272 5.22174 7.42028 4.98972 7.6987C4.7577 7.97713 4.7953 8.3905 5.0737 8.62253L7.04441 10.2651C7.38762 10.5509 7.89502 10.5141 8.19382 10.1821L11.2319 6.80808C11.4742 6.53883 11.452 6.12384 11.1831 5.88132Z" fill="#10B981"/>
</g>
<defs>
<clipPath id="clip0_137_97526">
<rect width="14" height="14" fill="white" transform="translate(1 1)"/>
</clipPath>
</defs>
</svg>
