<svg width="28" height="29" viewBox="0 0 28 29" fill="none" xmlns="http://www.w3.org/2000/svg">
<path d="M7.05845 20.5L5.2938 22.2647C4.90165 21.4804 4.47029 19.5589 5.88202 18.1472C7.29374 16.7354 8.82311 17.1668 9.41132 17.5589L13.5289 13.4414L15.8817 15.7943L11.7642 19.9118C11.9603 20.304 12.1171 21.4412 11.176 22.8529C10.2348 24.2646 8.03882 24.2254 7.05845 24.0293L8.82311 22.2647V20.5H7.05845Z" fill="#CAD5E1"/>
<path d="M22.2033 8.83396L23.9679 7.06931C24.3601 7.8536 24.7914 9.77511 23.3797 11.1868C21.968 12.5986 20.4386 12.1672 19.8504 11.7751L15.7329 15.8926L13.38 13.5397L17.4975 9.42218C17.3014 9.03003 17.1446 7.89281 18.0857 6.48109C19.0269 5.06936 21.2229 5.10858 22.2033 5.30465L20.4386 7.06931V8.83396H22.2033Z" fill="#CAD5E1"/>
<rect x="8.84766" y="10.9062" width="3.75452" height="18.9339" rx="1.17644" transform="rotate(-45 8.84766 10.9062)" fill="#FF9950"/>
<rect x="3.38672" y="11.4336" width="2.35287" height="5.53579" rx="1.17644" transform="rotate(-45 3.38672 11.4336)" fill="#575D68"/>
<rect x="4.70703" y="11.5762" width="3.4218" height="3.45384" transform="rotate(-45 4.70703 11.5762)" fill="#575D68"/>
<rect x="5.88281" y="9.22266" width="5.44399" height="5.53579" rx="1.17644" transform="rotate(-45 5.88281 9.22266)" fill="#575D68"/>
<path d="M9.41309 5.67767L7.64844 7.4423L8.82487 10.501L11.766 7.55991C12.8693 6.4566 11.9031 7.42278 14.2048 7.54717C14.404 7.55794 14.5107 7.32665 14.3781 7.17764C11.648 4.11035 10.1676 5.11177 9.41309 5.67767Z" fill="#575D68"/>
</svg>
