<svg width="46" height="47" viewBox="0 0 46 47" fill="none" xmlns="http://www.w3.org/2000/svg">
<path d="M6.6512 29.2333C8.33551 38.264 17.0218 44.2194 26.0525 42.5351C35.0833 40.8508 41.0387 32.1646 39.3544 23.1338C37.6701 14.1031 28.9838 8.14763 19.9531 9.83194C10.9224 11.5162 4.96689 20.2025 6.6512 29.2333Z" fill="#64748B"/>
<circle cx="4.15839" cy="4.15839" r="4.15839" transform="matrix(-0.983048 0.183347 0.183347 0.983048 10.0078 23.2695)" fill="#64748B"/>
<ellipse cx="4.15839" cy="4.15839" rx="4.15839" ry="4.15839" transform="matrix(-0.983048 0.183347 0.183347 0.983048 42.7812 23.2695)" fill="#64748B"/>
<path fill-rule="evenodd" clip-rule="evenodd" d="M6.34076 22.0203C8.82397 23.7288 11.9602 24.439 15.1029 23.7333C18.2962 23.0162 20.8584 20.9805 22.3638 18.3122C24.7694 22.5515 29.6771 24.9213 34.6009 23.8157C36.37 23.4184 37.9454 22.6164 39.2548 21.5263C39.2057 21.2427 39.1493 20.9587 39.0855 20.6747C37.0363 11.5486 28.1088 5.78201 19.1456 7.79472C12.1568 9.36406 7.20972 15.1995 6.34076 22.0203Z" fill="#1E293B"/>
<path fill-rule="evenodd" clip-rule="evenodd" d="M34.953 12.7026L10.7098 12.4732C11.2885 7.78744 16.5463 4.15507 22.9107 4.2153C29.275 4.27552 34.4632 8.00675 34.953 12.7026Z" fill="#475569"/>
<rect x="6.66797" y="12.4375" width="32.3282" height="4.04102" rx="1.32284" transform="rotate(0.542194 6.66797 12.4375)" fill="#475569"/>
<path d="M18.8446 7.16682C18.8657 4.93513 20.692 3.1431 22.9237 3.16422C25.1553 3.18534 26.9474 5.0116 26.9263 7.2433L26.8753 12.6311L18.7936 12.5546L18.8446 7.16682Z" fill="#334155"/>
</svg>
