<svg width="40" height="40" viewBox="0 0 40 40" fill="none" xmlns="http://www.w3.org/2000/svg">
<path d="M18.0291 9.24804C10.9997 10.5593 6.36424 17.3211 7.6753 24.3506C8.98656 31.3799 15.7476 36.0154 22.7769 34.7046C29.8064 33.3935 34.4426 26.6323 33.1318 19.6028C31.8207 12.5731 25.0587 7.93695 18.0291 9.24804Z" fill="#F5C2D0"/>
<ellipse cx="1.21199" cy="1.16438" rx="1.21199" ry="1.16438" transform="matrix(9.68485e-09 -1 -1 -9.68485e-09 17.4023 24.4458)" fill="#334155"/>
<ellipse cx="1.22" cy="1.165" rx="1.22" ry="1.165" transform="matrix(-4.91277e-08 1 1 4.91277e-08 23.0625 21.9414)" fill="#334155"/>
<circle cx="3.23695" cy="3.23695" r="3.23695" transform="matrix(-0.983048 0.183347 0.183347 0.983048 10.293 19.7026)" fill="#F5C2D0"/>
<circle cx="3.23695" cy="3.23695" r="3.23695" transform="matrix(-0.983048 0.183347 0.183347 0.983048 35.8047 19.7026)" fill="#F5C2D0"/>
<path d="M17.4093 7.63719C11.9703 8.85872 8.12066 13.3998 7.4433 18.7078C9.37665 20.0385 11.8172 20.5942 14.2642 20.0447C16.7486 19.4866 18.7422 17.903 19.914 15.8275C21.7865 19.1283 25.6066 20.9738 29.4399 20.1131C30.8184 19.8034 32.0445 19.1763 33.0642 18.3264C33.026 18.1052 32.9809 17.8841 32.9312 17.6626C31.3359 10.559 24.3862 6.07064 17.4093 7.63719Z" fill="#1E293B"/>
<path d="M20.3394 4.85392C25.296 4.90082 29.333 7.80843 29.7109 11.4663L10.8445 11.2878C11.2915 7.63771 15.3829 4.80706 20.3394 4.85392Z" fill="#FACC15"/>
<rect x="7.69531" y="11.2583" width="25.1647" height="3.14559" rx="1.04853" transform="rotate(0.542194 7.69531 11.2583)" fill="#FACC15"/>
<path d="M17.1734 7.15472C17.1898 5.41754 18.6114 4.0226 20.3486 4.03904C22.0857 4.05548 23.4807 5.47707 23.4642 7.21425L23.4246 11.4082L17.1337 11.3486L17.1734 7.15472Z" fill="#EAB308"/>
</svg>
